<svg width="50" height="50" viewBox="0 0 50 50" fill="none" xmlns="http://www.w3.org/2000/svg">
<path d="M35.1824 9.4482C30.6369 4.01333 26.1515 0.481423 25.9628 0.333772C24.94 -0.466297 23.4374 0.2619 23.4374 1.5642V8.43485C23.4374 11.9831 18.7427 13.232 16.9821 10.1477C16.4384 9.19518 15.1087 9.08737 14.4167 9.93197C9.68696 15.7033 5.46924 22.9782 5.46924 30.4694C5.46924 41.2386 14.2306 50 24.9998 50C35.769 50 44.5304 41.2386 44.5304 30.4694C44.5304 22.7831 40.0892 15.315 35.1824 9.4482ZM24.9998 46.8751C15.9536 46.8751 8.59413 39.5156 8.59413 30.4694C8.59413 24.1669 12.1978 17.9329 15.6529 13.405C19.746 17.0197 26.5622 14.242 26.5622 8.43485V4.97423C33.4909 11.3044 41.4055 21.1015 41.4055 30.4694C41.4055 39.5156 34.046 46.8751 24.9998 46.8751Z" fill="#0D0D0D"/>
<path d="M31.4275 22.2051C30.7465 21.6754 29.7649 21.7981 29.2349 22.4792L18.2978 36.5412C17.4943 37.5744 18.2471 39.063 19.5301 39.063C19.9957 39.063 20.4564 38.8557 20.7645 38.4597L31.7016 24.3977C32.2314 23.7166 32.1087 22.7349 31.4275 22.2051Z" fill="#0D0D0D"/>
<path d="M30.4682 39.0633C32.194 39.0633 33.593 37.6642 33.593 35.9384C33.593 34.2125 32.194 32.8135 30.4682 32.8135C28.7423 32.8135 27.3433 34.2125 27.3433 35.9384C27.3433 37.6642 28.7423 39.0633 30.4682 39.0633Z" fill="#0D0D0D"/>
<path d="M19.5311 28.1258C21.257 28.1258 22.656 26.7267 22.656 25.0009C22.656 23.275 21.257 21.876 19.5311 21.876C17.8053 21.876 16.4062 23.275 16.4062 25.0009C16.4062 26.7267 17.8053 28.1258 19.5311 28.1258Z" fill="#0D0D0D"/>
</svg>
