<svg width="50" height="50" viewBox="0 0 50 50" fill="none" xmlns="http://www.w3.org/2000/svg">
<g clip-path="url(#clip0_1952_15566)">
<path fill-rule="evenodd" clip-rule="evenodd" d="M48.5297 49.314H1.47084C1.26282 49.314 1.06333 49.2313 0.916244 49.0843C0.769156 48.9372 0.686523 48.7377 0.686523 48.5297V42.0424C0.686523 41.8344 0.769156 41.6349 0.916244 41.4878C1.06333 41.3407 1.26282 41.2581 1.47084 41.2581H6.56888V35.5553C6.56888 35.3472 6.65151 35.1477 6.7986 35.0007C6.94568 34.8536 7.14518 34.7709 7.35319 34.7709H12.4512V29.068C12.4512 28.86 12.5339 28.6605 12.6809 28.5134C12.828 28.3663 13.0275 28.2837 13.2355 28.2837H18.3336V22.5807C18.3336 22.3727 18.4162 22.1732 18.5633 22.0261C18.7104 21.8791 18.9099 21.7964 19.1179 21.7964H30.8826C31.0906 21.7964 31.2901 21.8791 31.4372 22.0261C31.5843 22.1732 31.6669 22.3727 31.6669 22.5807V28.2837H36.765C36.973 28.2837 37.1725 28.3663 37.3195 28.5134C37.4666 28.6605 37.5493 28.86 37.5493 29.068V34.7709H42.6473C42.8553 34.7709 43.0548 34.8536 43.2019 35.0007C43.349 35.1477 43.4316 35.3472 43.4316 35.5553V41.2581H48.5297C48.7377 41.2581 48.9372 41.3407 49.0843 41.4878C49.2313 41.6349 49.314 41.8344 49.314 42.0424V48.5297C49.314 48.7377 49.2313 48.9372 49.0843 49.0843C48.9372 49.2313 48.7377 49.314 48.5297 49.314ZM12.4512 42.8267H2.25515V47.7453H12.4512V42.8267ZM18.3336 36.3396H8.1375V41.2581H18.3336V36.3396ZM24.2159 29.8523H14.0199V34.7709H24.2159V29.8523ZM30.0983 28.2837V23.3651H19.9022V28.2837H30.0983ZM35.9806 34.7709V29.8523H25.7846V34.7709H35.9806ZM41.863 41.2581V36.3396H31.6669V41.2581H41.863ZM37.5493 47.7453H47.7453V42.8267H37.5493V47.7453ZM25.7846 47.7453H35.9806V42.8267H25.7846V47.7453ZM14.0199 47.7453H24.2159V42.8267H14.0199V47.7453ZM19.9022 36.3396V41.2581H30.0983V36.3396H19.9022ZM23.3314 7.39574C23.4459 7.04332 23.6691 6.7362 23.9689 6.51839C24.2686 6.30058 24.6297 6.18327 25.0002 6.18327C25.3708 6.18327 25.7319 6.30058 26.0316 6.51839C26.3314 6.7362 26.5546 7.04332 26.6691 7.39574L27.6255 10.3394C27.6377 10.3767 27.6614 10.4093 27.6931 10.4324C27.7249 10.4555 27.7632 10.468 27.8025 10.468H30.8977C31.2683 10.4679 31.6294 10.5852 31.9292 10.803C32.2291 11.0208 32.4522 11.328 32.5667 11.6804C32.6813 12.0329 32.6812 12.4125 32.5667 12.765C32.4521 13.1174 32.2289 13.4245 31.9291 13.6423L29.4251 15.4615C29.3933 15.4846 29.3696 15.5172 29.3575 15.5546C29.3453 15.5919 29.3453 15.6322 29.3574 15.6696L30.3139 18.6133C30.4284 18.9657 30.4285 19.3454 30.314 19.6978C30.1995 20.0502 29.9763 20.3574 29.6765 20.5752C29.3767 20.793 29.0157 20.9103 28.6451 20.9103C28.2745 20.9103 27.9135 20.7929 27.6137 20.5751L25.1097 18.7558C25.0779 18.7327 25.0396 18.7202 25.0002 18.7202C24.9609 18.7202 24.9226 18.7327 24.8908 18.7558L22.3868 20.5751C22.087 20.7929 21.726 20.9103 21.3554 20.9103C20.9848 20.9103 20.6238 20.793 20.324 20.5752C20.0242 20.3574 19.801 20.0502 19.6865 19.6978C19.572 19.3454 19.5721 18.9657 19.6866 18.6133L20.6431 15.6696C20.6552 15.6322 20.6552 15.5919 20.643 15.5546C20.6309 15.5172 20.6072 15.4846 20.5754 15.4615L18.0714 13.6423C17.7718 13.4244 17.5487 13.1173 17.4343 12.7649C17.3199 12.4125 17.3199 12.033 17.4344 11.6806C17.5489 11.3282 17.7719 11.0212 18.0716 10.8033C18.3713 10.5855 18.7323 10.4681 19.1028 10.468H22.198C22.2786 10.468 22.3501 10.416 22.375 10.3394L23.3314 7.39574ZM24.8233 7.88045L23.8668 10.8241C23.7523 11.1765 23.5292 11.4836 23.2294 11.7015C22.9296 11.9193 22.5686 12.0366 22.198 12.0366H19.1028C19.0635 12.0366 19.0253 12.0491 18.9935 12.0722C18.9617 12.0953 18.9381 12.1279 18.9259 12.1652C18.9138 12.2026 18.9138 12.2428 18.9259 12.2802C18.9381 12.3175 18.9617 12.3501 18.9935 12.3732L21.4975 14.1925C21.7973 14.4103 22.0204 14.7175 22.1349 15.0699C22.2495 15.4223 22.2495 15.8019 22.135 16.1544L21.1785 19.098C21.1663 19.1354 21.1663 19.1756 21.1785 19.213C21.1906 19.2504 21.2143 19.283 21.2461 19.3061C21.2779 19.3292 21.3162 19.3416 21.3555 19.3416C21.3948 19.3416 21.4331 19.3291 21.4649 19.306L23.9689 17.4867C24.2687 17.2689 24.6297 17.1517 25.0002 17.1517C25.3708 17.1517 25.7318 17.2689 26.0316 17.4867L28.5356 19.306C28.5674 19.3292 28.6057 19.3417 28.6451 19.3418C28.6844 19.3418 28.7227 19.3294 28.7545 19.3062C28.7864 19.2831 28.81 19.2505 28.8222 19.2131C28.8343 19.1757 28.8342 19.1354 28.822 19.098L27.8655 16.1544C27.751 15.8019 27.751 15.4223 27.8656 15.0699C27.9801 14.7175 28.2032 14.4103 28.503 14.1925L31.007 12.3732C31.0388 12.3501 31.0625 12.3176 31.0747 12.2802C31.0869 12.2428 31.0869 12.2025 31.0748 12.1652C31.0626 12.1278 31.0389 12.0952 31.0071 12.0721C30.9753 12.049 30.937 12.0366 30.8977 12.0366H27.8025C27.4319 12.0366 27.0709 11.9193 26.7711 11.7015C26.4713 11.4836 26.2482 11.1765 26.1337 10.8241L25.1772 7.88045C25.165 7.84313 25.1413 7.81062 25.1095 7.78758C25.0778 7.76453 25.0395 7.75212 25.0002 7.75212C24.961 7.75212 24.9227 7.76453 24.891 7.78758C24.8592 7.81062 24.8355 7.84313 24.8233 7.88045ZM24.2159 1.47084C24.2159 1.03799 24.5674 0.686523 25.0002 0.686523C25.4331 0.686523 25.7846 1.03799 25.7846 1.47084V3.7328C25.7846 4.16564 25.4331 4.51711 25.0002 4.51711C24.5674 4.51711 24.2159 4.16564 24.2159 3.7328V1.47084ZM18.2831 3.48084C18.0666 3.10594 18.1952 2.62594 18.5702 2.40946C18.9451 2.19299 19.4252 2.32162 19.6415 2.69652L20.7725 4.65545C20.989 5.03035 20.8603 5.51035 20.4854 5.72682C20.1105 5.94329 19.6304 5.81466 19.4141 5.43976L18.2831 3.48084ZM14.1501 8.18799C13.7752 7.97162 13.6465 7.49152 13.863 7.11662C14.0795 6.74172 14.5595 6.61309 14.9344 6.82956L16.8933 7.96054C17.2682 8.17692 17.3968 8.65701 17.1803 9.03192C16.9639 9.40682 16.4839 9.53545 16.109 9.31897L14.1501 8.18799ZM30.359 2.69652C30.5753 2.32162 31.0554 2.19299 31.4303 2.40946C31.8053 2.62594 31.9339 3.10594 31.7174 3.48084L30.5864 5.43976C30.3701 5.81466 29.89 5.94329 29.5151 5.72682C29.1402 5.51035 29.0115 5.03035 29.228 4.65545L30.359 2.69652ZM35.0661 6.82956C35.441 6.61309 35.921 6.74172 36.1375 7.11662C36.354 7.49152 36.2253 7.97162 35.8504 8.18799L33.8915 9.31897C33.5166 9.53545 33.0366 9.40682 32.8202 9.03192C32.6037 8.65701 32.7323 8.17692 33.1072 7.96054L35.0661 6.82956Z" fill="#0D0D0D"/>
</g>
<defs>
<clipPath id="clip0_1952_15566">
<rect width="50" height="50" fill="white"/>
</clipPath>
</defs>
</svg>
