<svg width="50" height="50" viewBox="0 0 50 50" fill="none" xmlns="http://www.w3.org/2000/svg">
<path d="M21.3535 20.833C17.041 20.833 13.541 24.333 13.541 28.6455C13.541 32.958 17.041 36.458 21.3535 36.458C25.666 36.458 29.166 32.958 29.166 28.6455C29.166 24.333 25.666 20.833 21.3535 20.833ZM21.3535 34.3747C18.1973 34.3747 15.6243 31.8018 15.6243 28.6455C15.6243 25.4893 18.1973 22.9163 21.3535 22.9163C24.5098 22.9163 27.0827 25.4893 27.0827 28.6455C27.0827 31.8018 24.5098 34.3747 21.3535 34.3747Z" fill="#0D0D0D"/>
<path d="M36.458 16.666H5.20801C3.48926 16.666 2.08301 18.0723 2.08301 19.791V37.4994C2.08301 39.2181 3.48926 40.6244 5.20801 40.6244H36.458C38.1768 40.6244 39.583 39.2181 39.583 37.4994V19.791C39.583 18.0723 38.1768 16.666 36.458 16.666ZM31.3643 38.541H10.3018C10.3747 38.1973 10.4163 37.8535 10.4163 37.4994C10.4163 34.6243 8.08301 32.291 5.20801 32.291C4.85384 32.291 4.51009 32.3431 4.16634 32.4056V24.8743C4.51009 24.9473 4.85384 24.9889 5.20801 24.9889C8.08301 24.9889 10.4163 22.6556 10.4163 19.7806C10.4163 19.4264 10.3643 19.0827 10.3018 18.7389H31.3747C31.3018 19.0827 31.2601 19.4264 31.2601 19.7806C31.2601 22.6556 33.5934 24.9889 36.4684 24.9889C36.8226 24.9889 37.1663 24.9368 37.5101 24.8743V32.4056C37.1663 32.3327 36.8226 32.291 36.4684 32.291C33.5934 32.291 31.2601 34.6243 31.2601 37.4994C31.2601 37.8535 31.3122 38.1973 31.3747 38.541H31.3643ZM37.4997 19.791V22.7077C37.1663 22.8327 36.8226 22.916 36.458 22.916C34.7393 22.916 33.333 21.5098 33.333 19.791C33.333 19.4264 33.4163 19.0827 33.5413 18.7493H36.458C37.0309 18.7493 37.4997 19.2181 37.4997 19.791ZM5.20801 18.7493H8.12467C8.24967 19.0827 8.33301 19.4264 8.33301 19.791C8.33301 21.5098 6.92676 22.916 5.20801 22.916C4.84342 22.916 4.49967 22.8327 4.16634 22.7077V19.791C4.16634 19.2181 4.63509 18.7493 5.20801 18.7493ZM4.16634 37.4994V34.5827C4.49967 34.4577 4.84342 34.3743 5.20801 34.3743C6.92676 34.3743 8.33301 35.7806 8.33301 37.4994C8.33301 37.8639 8.24967 38.2077 8.12467 38.541H5.20801C4.63509 38.541 4.16634 38.0723 4.16634 37.4994ZM36.458 38.541H33.5413C33.4163 38.2077 33.333 37.8535 33.333 37.4994C33.333 35.7806 34.7393 34.3743 36.458 34.3743C36.8226 34.3743 37.1663 34.4577 37.4997 34.5827V37.4994C37.4997 38.0723 37.0309 38.541 36.458 38.541Z" fill="#0D0D0D"/>
<path d="M40.6247 12.5H9.37467C8.80176 12.5 8.33301 12.9687 8.33301 13.5417C8.33301 14.1146 8.80176 14.5833 9.37467 14.5833H40.6247C41.1976 14.5833 41.6663 15.0521 41.6663 15.625V36.4583C41.6663 37.0312 42.1351 37.5 42.708 37.5C43.2809 37.5 43.7497 37.0312 43.7497 36.4583V15.625C43.7497 13.9062 42.3434 12.5 40.6247 12.5Z" fill="#0D0D0D"/>
<path d="M44.7913 8.33301H9.37467C8.80176 8.33301 8.33301 8.80176 8.33301 9.37467C8.33301 9.94759 8.80176 10.4163 9.37467 10.4163H44.7913C45.3643 10.4163 45.833 10.8851 45.833 11.458V30.208C45.833 30.7809 46.3018 31.2497 46.8747 31.2497C47.4476 31.2497 47.9163 30.7809 47.9163 30.208V11.458C47.9163 9.73926 46.5101 8.33301 44.7913 8.33301ZM23.958 28.1247H21.8747V26.0413C21.8747 25.4684 21.4059 24.9997 20.833 24.9997C20.2601 24.9997 19.7913 25.4684 19.7913 26.0413V29.1663C19.7913 29.7393 20.2601 30.208 20.833 30.208H23.958C24.5309 30.208 24.9997 29.7393 24.9997 29.1663C24.9997 28.5934 24.5309 28.1247 23.958 28.1247Z" fill="#0D0D0D"/>
</svg>
