<svg width="31" height="31" viewBox="0 0 31 31" fill="none" xmlns="http://www.w3.org/2000/svg">
<g clip-path="url(#clip0_59388_46)">
<path d="M28.7347 30.1265H3.23467C2.63814 30.1258 2.06623 29.8885 1.64441 29.4667C1.2226 29.0449 0.985334 28.473 0.984673 27.8765L0.984673 2.37646C0.984673 1.13596 1.99417 0.126465 3.23467 0.126465H28.7347C29.9752 0.126465 30.9847 1.13596 30.9847 2.37646V27.8765C30.9847 29.117 29.9752 30.1265 28.7347 30.1265ZM3.23467 1.12646C2.90327 1.12686 2.58556 1.25869 2.35123 1.49302C2.11689 1.72735 1.98507 2.04507 1.98467 2.37646V27.8765C1.98467 28.5655 2.54567 29.1265 3.23467 29.1265H28.7347C29.4242 29.1265 29.9847 28.5655 29.9847 27.8765V2.37646C29.9847 1.68746 29.4237 1.12646 28.7347 1.12646H3.23467Z" fill="#185DDE"/>
<path d="M5.48467 5.12647H3.48467C3.35206 5.12647 3.22489 5.07379 3.13112 4.98002C3.03735 4.88625 2.98467 4.75907 2.98467 4.62647V2.62646C2.98467 2.49386 3.03735 2.36668 3.13112 2.27291C3.22489 2.17914 3.35206 2.12646 3.48467 2.12646H5.48467C5.61728 2.12646 5.74446 2.17914 5.83823 2.27291C5.93199 2.36668 5.98467 2.49386 5.98467 2.62646V4.62647C5.98467 4.75907 5.93199 4.88625 5.83823 4.98002C5.74446 5.07379 5.61728 5.12647 5.48467 5.12647ZM3.98467 4.12647H4.98467V3.12646H3.98467V4.12647ZM9.48467 5.12647H7.48467C7.35206 5.12647 7.22489 5.07379 7.13112 4.98002C7.03735 4.88625 6.98467 4.75907 6.98467 4.62647V2.62646C6.98467 2.49386 7.03735 2.36668 7.13112 2.27291C7.22489 2.17914 7.35206 2.12646 7.48467 2.12646H9.48467C9.61728 2.12646 9.74446 2.17914 9.83823 2.27291C9.93199 2.36668 9.98467 2.49386 9.98467 2.62646V4.62647C9.98467 4.75907 9.93199 4.88625 9.83823 4.98002C9.74446 5.07379 9.61728 5.12647 9.48467 5.12647ZM7.98467 4.12647H8.98467V3.12646H7.98467V4.12647ZM13.4847 5.12647H11.4847C11.3521 5.12647 11.2249 5.07379 11.1311 4.98002C11.0374 4.88625 10.9847 4.75907 10.9847 4.62647V2.62646C10.9847 2.49386 11.0374 2.36668 11.1311 2.27291C11.2249 2.17914 11.3521 2.12646 11.4847 2.12646H13.4847C13.6173 2.12646 13.7445 2.17914 13.8382 2.27291C13.932 2.36668 13.9847 2.49386 13.9847 2.62646V4.62647C13.9847 4.75907 13.932 4.88625 13.8382 4.98002C13.7445 5.07379 13.6173 5.12647 13.4847 5.12647ZM11.9847 4.12647H12.9847V3.12646H11.9847V4.12647Z" fill="#185DDE"/>
<path d="M30.4847 7.12647H1.48467C1.35206 7.12647 1.22489 7.07379 1.13112 6.98002C1.03735 6.88625 0.984673 6.75907 0.984673 6.62647V2.37647C0.984673 1.13596 1.99417 0.126465 3.23467 0.126465H28.7347C29.9752 0.126465 30.9847 1.13596 30.9847 2.37647V6.62647C30.9847 6.75907 30.932 6.88625 30.8382 6.98002C30.7445 7.07379 30.6173 7.12647 30.4847 7.12647ZM1.98467 6.12647H29.9847V2.37647C29.9847 1.68747 29.4237 1.12646 28.7347 1.12646H3.23467C2.90327 1.12686 2.58556 1.25869 2.35123 1.49302C2.11689 1.72735 1.98507 2.04507 1.98467 2.37647V6.12647ZM14.4847 19.1265H3.48467C3.35206 19.1265 3.22489 19.0738 3.13112 18.98C3.03735 18.8863 2.98467 18.7591 2.98467 18.6265V8.62647C2.98467 8.49386 3.03735 8.36668 3.13112 8.27291C3.22489 8.17914 3.35206 8.12647 3.48467 8.12647H14.4847C14.6173 8.12647 14.7445 8.17914 14.8382 8.27291C14.932 8.36668 14.9847 8.49386 14.9847 8.62647V18.6265C14.9847 18.7591 14.932 18.8863 14.8382 18.98C14.7445 19.0738 14.6173 19.1265 14.4847 19.1265ZM3.98467 18.1265H13.9847V9.12647H3.98467V18.1265Z" fill="#185DDE"/>
<path d="M8.98467 19.1265C8.91901 19.1265 8.85397 19.1136 8.79331 19.0885C8.73264 19.0633 8.67754 19.0265 8.63117 18.98L5.98467 16.3335L3.83817 18.48C3.79175 18.5264 3.73664 18.5632 3.67599 18.5883C3.61533 18.6135 3.55032 18.6264 3.48467 18.6264C3.41902 18.6264 3.35401 18.6135 3.29336 18.5883C3.23271 18.5632 3.1776 18.5264 3.13117 18.48C3.08475 18.4335 3.04793 18.3784 3.0228 18.3178C2.99768 18.2571 2.98475 18.1921 2.98475 18.1265C2.98475 18.0608 2.99768 17.9958 3.0228 17.9352C3.04793 17.8745 3.08475 17.8194 3.13117 17.773L5.63117 15.273C5.67757 15.2265 5.73267 15.1896 5.79333 15.1645C5.85398 15.1393 5.91901 15.1264 5.98467 15.1264C6.05034 15.1264 6.11536 15.1393 6.17602 15.1645C6.23668 15.1896 6.29178 15.2265 6.33817 15.273L9.33817 18.273C9.40832 18.3428 9.45614 18.4319 9.47557 18.529C9.49499 18.626 9.48514 18.7267 9.44726 18.8181C9.40938 18.9096 9.34519 18.9877 9.26283 19.0426C9.18047 19.0975 9.08366 19.1267 8.98467 19.1265ZM6.98467 14.1265C5.88167 14.1265 4.98467 13.2295 4.98467 12.1265C4.98467 11.0235 5.88167 10.1265 6.98467 10.1265C8.08767 10.1265 8.98467 11.0235 8.98467 12.1265C8.98467 13.2295 8.08767 14.1265 6.98467 14.1265ZM6.98467 11.1265C6.43317 11.1265 5.98467 11.575 5.98467 12.1265C5.98467 12.678 6.43317 13.1265 6.98467 13.1265C7.53617 13.1265 7.98467 12.678 7.98467 12.1265C7.98467 11.575 7.53617 11.1265 6.98467 11.1265Z" fill="#185DDE"/>
<path d="M14.4847 18.1264C14.419 18.1265 14.354 18.1136 14.2933 18.0884C14.2326 18.0633 14.1775 18.0264 14.1312 17.9799L11.0002 14.8489L8.24718 17.8499C8.20279 17.8983 8.1493 17.9375 8.08978 17.9652C8.03025 17.9929 7.96585 18.0087 7.90024 18.0115C7.83464 18.0143 7.76912 18.0042 7.70742 17.9817C7.64573 17.9592 7.58907 17.9248 7.54068 17.8804C7.49228 17.836 7.45311 17.7825 7.42539 17.723C7.39766 17.6635 7.38194 17.5991 7.3791 17.5335C7.37627 17.4679 7.38639 17.4024 7.40888 17.3407C7.43137 17.279 7.46579 17.2223 7.51018 17.1739L10.6157 13.7884C10.6613 13.7387 10.7164 13.6987 10.7779 13.6709C10.8393 13.643 10.9057 13.6279 10.9732 13.6264C11.1112 13.6204 11.2412 13.6764 11.3377 13.7729L14.8377 17.2729C14.9078 17.3427 14.9556 17.4318 14.975 17.5288C14.9945 17.6258 14.9847 17.7264 14.9469 17.8178C14.909 17.9092 14.8449 17.9874 14.7626 18.0423C14.6804 18.0973 14.5836 18.1265 14.4847 18.1264ZM28.4847 28.1264H17.4847C17.3521 28.1264 17.2249 28.0737 17.1311 27.98C17.0374 27.8862 16.9847 27.759 16.9847 27.6264V17.6264C16.9847 17.4938 17.0374 17.3666 17.1311 17.2729C17.2249 17.1791 17.3521 17.1264 17.4847 17.1264H28.4847C28.6173 17.1264 28.7445 17.1791 28.8382 17.2729C28.932 17.3666 28.9847 17.4938 28.9847 17.6264V27.6264C28.9847 27.759 28.932 27.8862 28.8382 27.98C28.7445 28.0737 28.6173 28.1264 28.4847 28.1264ZM17.9847 27.1264H27.9847V18.1264H17.9847V27.1264Z" fill="#185DDE"/>
<path d="M22.9847 28.1265C22.919 28.1265 22.854 28.1136 22.7933 28.0885C22.7326 28.0633 22.6775 28.0265 22.6312 27.98L19.9847 25.3335L17.8382 27.48C17.7444 27.5737 17.6173 27.6264 17.4847 27.6264C17.3521 27.6264 17.2249 27.5737 17.1312 27.48C17.0374 27.3862 16.9847 27.2591 16.9847 27.1265C16.9847 26.9939 17.0374 26.8667 17.1312 26.773L19.6312 24.273C19.6776 24.2265 19.7327 24.1896 19.7933 24.1645C19.854 24.1393 19.919 24.1264 19.9847 24.1264C20.0503 24.1264 20.1154 24.1393 20.176 24.1645C20.2367 24.1896 20.2918 24.2265 20.3382 24.273L23.3382 27.273C23.4083 27.3428 23.4561 27.4319 23.4756 27.529C23.495 27.626 23.4851 27.7267 23.4473 27.8181C23.4094 27.9096 23.3452 27.9877 23.2628 28.0426C23.1805 28.0975 23.0837 28.1267 22.9847 28.1265ZM20.9847 23.1265C19.8817 23.1265 18.9847 22.2295 18.9847 21.1265C18.9847 20.0235 19.8817 19.1265 20.9847 19.1265C22.0877 19.1265 22.9847 20.0235 22.9847 21.1265C22.9847 22.2295 22.0877 23.1265 20.9847 23.1265ZM20.9847 20.1265C20.4332 20.1265 19.9847 20.575 19.9847 21.1265C19.9847 21.678 20.4332 22.1265 20.9847 22.1265C21.5362 22.1265 21.9847 21.678 21.9847 21.1265C21.9847 20.575 21.5362 20.1265 20.9847 20.1265Z" fill="#185DDE"/>
<path d="M28.4847 27.1265C28.419 27.1265 28.354 27.1136 28.2933 27.0885C28.2326 27.0633 28.1775 27.0265 28.1312 26.98L25.0002 23.849L22.2472 26.85C22.2028 26.8984 22.1493 26.9375 22.0898 26.9653C22.0303 26.993 21.9658 27.0087 21.9002 27.0115C21.8346 27.0144 21.7691 27.0043 21.7074 26.9818C21.6457 26.9593 21.5891 26.9249 21.5407 26.8805C21.4923 26.8361 21.4531 26.7826 21.4254 26.7231C21.3977 26.6635 21.3819 26.5991 21.3791 26.5335C21.3763 26.4679 21.3864 26.4024 21.4089 26.3407C21.4314 26.279 21.4658 26.2224 21.5102 26.174L24.6157 22.7885C24.6613 22.7387 24.7165 22.6988 24.778 22.671C24.8394 22.6431 24.9059 22.6281 24.9734 22.6266C25.0408 22.6252 25.1079 22.6374 25.1705 22.6625C25.2331 22.6877 25.29 22.7253 25.3377 22.773L28.8377 26.273C28.9078 26.3428 28.9556 26.4318 28.975 26.5288C28.9945 26.6258 28.9847 26.7264 28.9469 26.8179C28.909 26.9093 28.8449 26.9874 28.7626 27.0424C28.6804 27.0973 28.5836 27.1266 28.4847 27.1265ZM25.4847 11.1265H17.4847C17.3521 11.1265 17.2249 11.0738 17.1311 10.98C17.0374 10.8863 16.9847 10.7591 16.9847 10.6265C16.9847 10.4939 17.0374 10.3667 17.1311 10.2729C17.2249 10.1791 17.3521 10.1265 17.4847 10.1265H25.4847C25.6173 10.1265 25.7445 10.1791 25.8382 10.2729C25.932 10.3667 25.9847 10.4939 25.9847 10.6265C25.9847 10.7591 25.932 10.8863 25.8382 10.98C25.7445 11.0738 25.6173 11.1265 25.4847 11.1265ZM28.4847 11.1265H27.4847C27.3521 11.1265 27.2249 11.0738 27.1311 10.98C27.0374 10.8863 26.9847 10.7591 26.9847 10.6265C26.9847 10.4939 27.0374 10.3667 27.1311 10.2729C27.2249 10.1791 27.3521 10.1265 27.4847 10.1265H28.4847C28.6173 10.1265 28.7445 10.1791 28.8382 10.2729C28.932 10.3667 28.9847 10.4939 28.9847 10.6265C28.9847 10.7591 28.932 10.8863 28.8382 10.98C28.7445 11.0738 28.6173 11.1265 28.4847 11.1265ZM25.4847 15.1265H17.4847C17.3521 15.1265 17.2249 15.0738 17.1311 14.98C17.0374 14.8863 16.9847 14.7591 16.9847 14.6265C16.9847 14.4939 17.0374 14.3667 17.1311 14.2729C17.2249 14.1791 17.3521 14.1265 17.4847 14.1265H25.4847C25.6173 14.1265 25.7445 14.1791 25.8382 14.2729C25.932 14.3667 25.9847 14.4939 25.9847 14.6265C25.9847 14.7591 25.932 14.8863 25.8382 14.98C25.7445 15.0738 25.6173 15.1265 25.4847 15.1265ZM28.4847 15.1265H27.4847C27.3521 15.1265 27.2249 15.0738 27.1311 14.98C27.0374 14.8863 26.9847 14.7591 26.9847 14.6265C26.9847 14.4939 27.0374 14.3667 27.1311 14.2729C27.2249 14.1791 27.3521 14.1265 27.4847 14.1265H28.4847C28.6173 14.1265 28.7445 14.1791 28.8382 14.2729C28.932 14.3667 28.9847 14.4939 28.9847 14.6265C28.9847 14.7591 28.932 14.8863 28.8382 14.98C28.7445 15.0738 28.6173 15.1265 28.4847 15.1265ZM28.4847 13.1265H20.4847C20.3521 13.1265 20.2249 13.0738 20.1311 12.98C20.0374 12.8863 19.9847 12.7591 19.9847 12.6265C19.9847 12.4939 20.0374 12.3667 20.1311 12.2729C20.2249 12.1791 20.3521 12.1265 20.4847 12.1265H28.4847C28.6173 12.1265 28.7445 12.1791 28.8382 12.2729C28.932 12.3667 28.9847 12.4939 28.9847 12.6265C28.9847 12.7591 28.932 12.8863 28.8382 12.98C28.7445 13.0738 28.6173 13.1265 28.4847 13.1265ZM18.4847 13.1265H17.4847C17.3521 13.1265 17.2249 13.0738 17.1311 12.98C17.0374 12.8863 16.9847 12.7591 16.9847 12.6265C16.9847 12.4939 17.0374 12.3667 17.1311 12.2729C17.2249 12.1791 17.3521 12.1265 17.4847 12.1265H18.4847C18.6173 12.1265 18.7445 12.1791 18.8382 12.2729C18.932 12.3667 18.9847 12.4939 18.9847 12.6265C18.9847 12.7591 18.932 12.8863 18.8382 12.98C18.7445 13.0738 18.6173 13.1265 18.4847 13.1265ZM11.4847 22.1265H3.48467C3.35206 22.1265 3.22489 22.0738 3.13112 21.98C3.03735 21.8863 2.98467 21.7591 2.98467 21.6265C2.98467 21.4939 3.03735 21.3667 3.13112 21.2729C3.22489 21.1791 3.35206 21.1265 3.48467 21.1265H11.4847C11.6173 21.1265 11.7445 21.1791 11.8382 21.2729C11.932 21.3667 11.9847 21.4939 11.9847 21.6265C11.9847 21.7591 11.932 21.8863 11.8382 21.98C11.7445 22.0738 11.6173 22.1265 11.4847 22.1265ZM14.4847 22.1265H13.4847C13.3521 22.1265 13.2249 22.0738 13.1311 21.98C13.0374 21.8863 12.9847 21.7591 12.9847 21.6265C12.9847 21.4939 13.0374 21.3667 13.1311 21.2729C13.2249 21.1791 13.3521 21.1265 13.4847 21.1265H14.4847C14.6173 21.1265 14.7445 21.1791 14.8382 21.2729C14.932 21.3667 14.9847 21.4939 14.9847 21.6265C14.9847 21.7591 14.932 21.8863 14.8382 21.98C14.7445 22.0738 14.6173 22.1265 14.4847 22.1265ZM11.4847 26.1265H3.48467C3.35206 26.1265 3.22489 26.0738 3.13112 25.98C3.03735 25.8863 2.98467 25.7591 2.98467 25.6265C2.98467 25.4939 3.03735 25.3667 3.13112 25.2729C3.22489 25.1791 3.35206 25.1265 3.48467 25.1265H11.4847C11.6173 25.1265 11.7445 25.1791 11.8382 25.2729C11.932 25.3667 11.9847 25.4939 11.9847 25.6265C11.9847 25.7591 11.932 25.8863 11.8382 25.98C11.7445 26.0738 11.6173 26.1265 11.4847 26.1265ZM14.4847 26.1265H13.4847C13.3521 26.1265 13.2249 26.0738 13.1311 25.98C13.0374 25.8863 12.9847 25.7591 12.9847 25.6265C12.9847 25.4939 13.0374 25.3667 13.1311 25.2729C13.2249 25.1791 13.3521 25.1265 13.4847 25.1265H14.4847C14.6173 25.1265 14.7445 25.1791 14.8382 25.2729C14.932 25.3667 14.9847 25.4939 14.9847 25.6265C14.9847 25.7591 14.932 25.8863 14.8382 25.98C14.7445 26.0738 14.6173 26.1265 14.4847 26.1265ZM14.4847 24.1265H6.48467C6.35206 24.1265 6.22489 24.0738 6.13112 23.98C6.03735 23.8863 5.98467 23.7591 5.98467 23.6265C5.98467 23.4939 6.03735 23.3667 6.13112 23.2729C6.22489 23.1791 6.35206 23.1265 6.48467 23.1265H14.4847C14.6173 23.1265 14.7445 23.1791 14.8382 23.2729C14.932 23.3667 14.9847 23.4939 14.9847 23.6265C14.9847 23.7591 14.932 23.8863 14.8382 23.98C14.7445 24.0738 14.6173 24.1265 14.4847 24.1265ZM4.48467 24.1265H3.48467C3.35206 24.1265 3.22489 24.0738 3.13112 23.98C3.03735 23.8863 2.98467 23.7591 2.98467 23.6265C2.98467 23.4939 3.03735 23.3667 3.13112 23.2729C3.22489 23.1791 3.35206 23.1265 3.48467 23.1265H4.48467C4.61728 23.1265 4.74446 23.1791 4.83823 23.2729C4.93199 23.3667 4.98467 23.4939 4.98467 23.6265C4.98467 23.7591 4.93199 23.8863 4.83823 23.98C4.74446 24.0738 4.61728 24.1265 4.48467 24.1265Z" fill="#185DDE"/>
</g>
<defs>
<clipPath id="clip0_59388_46">
<rect width="30" height="30" fill="white" transform="translate(0.984673 0.126465)"/>
</clipPath>
</defs>
</svg>
