<svg width="31" height="31" viewBox="0 0 31 31" fill="none" xmlns="http://www.w3.org/2000/svg">
<path d="M9.97512 14.1042L15.9848 4.24854L21.9945 14.1042H9.97512ZM22.8598 27.8542C21.4254 27.8542 20.2095 27.3554 19.212 26.3579C18.2145 25.3604 17.7157 24.1445 17.7157 22.7101C17.7157 21.2757 18.2145 20.0598 19.212 19.0623C20.2095 18.0648 21.4254 17.566 22.8598 17.566C24.2942 17.566 25.5101 18.0648 26.5076 19.0623C27.5051 20.0598 28.0039 21.2757 28.0039 22.7101C28.0039 24.1445 27.5051 25.3604 26.5076 26.3579C25.5101 27.3554 24.2942 27.8542 22.8598 27.8542ZM5.21574 27.2292V18.191H14.2539V27.2292H5.21574ZM22.8595 25.9795C23.7747 25.9795 24.5485 25.6634 25.1807 25.0313C25.813 24.3993 26.1292 23.6256 26.1292 22.7104C26.1292 21.7952 25.8131 21.0215 25.1811 20.3892C24.549 19.7569 23.7753 19.4407 22.8601 19.4407C21.9449 19.4407 21.1712 19.7568 20.5389 20.3888C19.9066 21.0209 19.5904 21.7946 19.5904 22.7098C19.5904 23.625 19.9065 24.3987 20.5386 25.031C21.1706 25.6633 21.9443 25.9795 22.8595 25.9795ZM7.09043 25.3545H12.3792V20.0657H7.09043V25.3545ZM13.2829 12.2295H18.6867L15.9848 7.88322L13.2829 12.2295Z" fill="#185DDE"/>
</svg>
