<svg width="31" height="30" viewBox="0 0 31 30" fill="none" xmlns="http://www.w3.org/2000/svg">
<path d="M12.6914 10.5274H4.83346C3.82243 10.5274 3 9.70497 3 8.69375V3.97897C3 2.96794 3.82243 2.14551 4.83346 2.14551H12.6914C13.7027 2.14551 14.5251 2.96794 14.5251 3.97897V8.69375C14.5251 9.70497 13.7027 10.5274 12.6914 10.5274ZM4.83346 3.7171C4.76403 3.71715 4.69745 3.74476 4.64835 3.79386C4.59925 3.84296 4.57165 3.90953 4.57159 3.97897V8.69375C4.57161 8.76322 4.59919 8.82984 4.6483 8.87897C4.6974 8.92811 4.764 8.95575 4.83346 8.95581H12.6914C12.7609 8.95579 12.8276 8.92817 12.8767 8.87903C12.9259 8.82989 12.9535 8.76325 12.9535 8.69375V3.97897C12.9534 3.9095 12.9258 3.8429 12.8767 3.7938C12.8275 3.7447 12.7609 3.71712 12.6914 3.7171H4.83346ZM12.6914 27.291H4.83346C3.82243 27.291 3 26.4686 3 25.4576V14.4564C3 13.4452 3.82243 12.6227 4.83346 12.6227H12.6914C13.7027 12.6227 14.5251 13.4452 14.5251 14.4564V25.4576C14.5251 26.4686 13.7027 27.291 12.6914 27.291ZM4.83346 14.1943C4.764 14.1944 4.6974 14.222 4.6483 14.2712C4.59919 14.3203 4.57161 14.3869 4.57159 14.4564V25.4576C4.57165 25.527 4.59925 25.5936 4.64835 25.6427C4.69745 25.6918 4.76403 25.7194 4.83346 25.7194H12.6914C12.7609 25.7194 12.8275 25.6918 12.8767 25.6427C12.9258 25.5936 12.9534 25.527 12.9535 25.4576V14.4564C12.9535 14.3869 12.9259 14.3203 12.8767 14.2711C12.8276 14.222 12.7609 14.1944 12.6914 14.1943H4.83346ZM26.312 27.291H18.4541C17.4429 27.291 16.6204 26.4686 16.6204 25.4576V20.7428C16.6204 19.7315 17.4429 18.9091 18.4541 18.9091H26.312C27.3231 18.9091 28.1455 19.7315 28.1455 20.7428V25.4576C28.1455 26.4686 27.3231 27.291 26.312 27.291ZM18.4541 20.4807C18.3846 20.4807 18.3179 20.5084 18.2688 20.5575C18.2197 20.6066 18.192 20.6733 18.192 20.7428V25.4576C18.1921 25.527 18.2197 25.5936 18.2689 25.6427C18.318 25.6918 18.3846 25.7194 18.4541 25.7194H26.312C26.3815 25.7194 26.4481 25.6918 26.4972 25.6427C26.5463 25.5936 26.5739 25.527 26.5739 25.4576V20.7428C26.5739 20.6733 26.5463 20.6067 26.4972 20.5575C26.4481 20.5084 26.3815 20.4808 26.312 20.4807H18.4541ZM26.312 16.8138H18.4541C17.4429 16.8138 16.6204 15.9914 16.6204 14.9801V3.97897C16.6204 2.96794 17.4429 2.14551 18.4541 2.14551H26.312C27.3231 2.14551 28.1455 2.96794 28.1455 3.97897V14.9801C28.1455 15.9914 27.3231 16.8138 26.312 16.8138ZM18.4541 3.7171C18.3846 3.71712 18.318 3.7447 18.2689 3.7938C18.2197 3.8429 18.1921 3.9095 18.192 3.97897V14.9801C18.192 15.0496 18.2197 15.1163 18.2688 15.1654C18.3179 15.2145 18.3846 15.2422 18.4541 15.2422H26.312C26.3815 15.2421 26.4481 15.2145 26.4972 15.1654C26.5463 15.1162 26.5739 15.0496 26.5739 14.9801V3.97897C26.5739 3.90953 26.5463 3.84296 26.4972 3.79386C26.4481 3.74476 26.3815 3.71715 26.312 3.7171H18.4541Z" fill="#185DDE"/>
</svg>
