<svg width="50" height="50" viewBox="0 0 50 50" fill="none" xmlns="http://www.w3.org/2000/svg">
<path d="M9.61667 39.5832C8.65694 39.5832 7.85625 39.2623 7.21458 38.6207C6.57292 37.979 6.25139 37.1776 6.25 36.2165V13.7832C6.25 12.8234 6.57153 12.0228 7.21458 11.3811C7.85764 10.7394 8.65764 10.4179 9.61458 10.4165H40.3854C41.3438 10.4165 42.1437 10.738 42.7854 11.3811C43.4271 12.0241 43.7486 12.8248 43.75 13.7832V36.2186C43.75 37.1769 43.4285 37.9776 42.7854 38.6207C42.1424 39.2637 41.3424 39.5846 40.3854 39.5832H9.61667ZM25 25.2415L8.33333 14.3436V36.2186C8.33333 36.5922 8.45347 36.8991 8.69375 37.1394C8.93403 37.3797 9.24167 37.4998 9.61667 37.4998H40.3854C40.759 37.4998 41.066 37.3797 41.3062 37.1394C41.5465 36.8991 41.6667 36.5915 41.6667 36.2165V14.3415L25 25.2415ZM25 22.9165L41.025 12.4998H8.975L25 22.9165ZM8.33333 14.3436V12.4998V36.2186C8.33333 36.5922 8.45347 36.8991 8.69375 37.1394C8.93403 37.3797 9.24167 37.4998 9.61667 37.4998H8.33333V14.3436Z" fill="#185DDE"/>
</svg>
