<svg width="50" height="50" viewBox="0 0 50 50" fill="none" xmlns="http://www.w3.org/2000/svg">
<path d="M40 41.6668C36.2472 41.6668 32.4847 40.8029 28.7125 39.0752C24.9403 37.3474 21.4646 34.8939 18.2854 31.7147C15.1326 28.5356 12.6861 25.0488 10.9458 21.2543C9.20418 17.4585 8.33334 13.7071 8.33334 10.0002V8.3335H17.5813L19.3479 16.8397L13.7313 22.0689C14.6813 23.7161 15.6653 25.221 16.6833 26.5835C17.7014 27.946 18.7618 29.1745 19.8646 30.2689C20.9785 31.4356 22.234 32.5259 23.6313 33.5397C25.0285 34.5536 26.6229 35.5536 28.4146 36.5397L33.8542 30.8981L41.6667 32.4731V41.6668H40ZM12.7521 20.1127L17.1104 16.1127L15.9063 10.4168H10.4271C10.4688 12.0057 10.6833 13.6064 11.0708 15.2189C11.457 16.83 12.0174 18.4613 12.7521 20.1127ZM30.3563 37.4772C31.6382 38.1203 33.0896 38.6224 34.7104 38.9835C36.3313 39.3446 37.9556 39.537 39.5833 39.5606V34.1335L34.6083 33.1439L30.3563 37.4772Z" fill="#185DDE"/>
</svg>
