<svg width="31" height="31" viewBox="0 0 31 31" fill="none" xmlns="http://www.w3.org/2000/svg">
<g clip-path="url(#clip0_59388_31)">
<path d="M12.1135 0.318115C13.5717 0.318115 14.9726 0.916862 15.9846 1.94604C16.9966 0.916862 18.3976 0.318115 19.8557 0.318115H29.1487V7.09155H31.0842V28.5818H19.3879C18.6764 29.7682 17.3806 30.5173 15.9846 30.5173C14.5886 30.5173 13.2929 29.7682 12.5813 28.5818H0.88501V7.09155H2.82056V0.318115H12.1135ZM2.052 27.4148H13.2961L13.3235 27.4714L13.4553 27.7468V27.7478L13.5481 27.9255C14.0424 28.797 14.9785 29.3503 15.9846 29.3503C17.0577 29.3503 18.0517 28.7205 18.5149 27.7468L18.6458 27.4714L18.6731 27.4148H29.9172V8.25952H29.1487V22.7761H28.1809V25.6794H24.1829C21.6128 25.6795 19.0398 26.2489 16.7083 27.3298L16.2454 27.5525L16.0295 27.6609L15.9846 27.6833L15.9397 27.6609L15.7239 27.5535C13.2724 26.3276 10.5276 25.6795 7.78638 25.6794H3.78833V22.7761H2.82056V8.25952H2.052V27.4148ZM3.98755 21.6082H5.91626C9.4996 21.6082 12.8877 23.0165 15.4006 25.5105V14.3503H16.5686V25.5105C19.082 23.0165 22.4705 21.6082 26.053 21.6082H27.9817V1.48511H19.8557C18.5848 1.48511 17.3724 2.06985 16.5686 3.04956V13.5818H15.4006V3.04956C14.5969 2.06985 13.3844 1.48511 12.1135 1.48511H3.98755V21.6082ZM4.95532 24.5115H7.78638C9.72809 24.5115 11.6703 24.8173 13.5217 25.405C11.3744 23.7136 8.71068 22.7761 5.91626 22.7761H4.95532V24.5115ZM26.053 22.7761C23.2588 22.7761 20.5935 23.7129 18.4456 25.405C20.2972 24.8167 22.2409 24.5115 24.1829 24.5115H27.0139V22.7761H26.053Z" fill="#185DDE" stroke="#185DDE" stroke-width="0.2"/>
<path d="M8.91853 2.74536C9.66039 2.82105 10.244 3.43472 10.275 4.18872H10.4234L10.5963 4.19849C10.7689 4.21756 10.9379 4.26562 11.0953 4.34106L11.2467 4.42407C11.3939 4.51622 11.5253 4.63249 11.6343 4.7688H11.6334C11.7791 4.94981 11.8824 5.16161 11.9351 5.38794L11.9654 5.55884C11.9789 5.67398 11.9789 5.79027 11.9664 5.90552L11.9381 6.07642L11.3004 8.94165C12.4151 9.52379 13.1811 10.6868 13.1812 12.0305V12.134L13.1744 12.3616C13.1596 12.5877 13.1224 12.8121 13.064 13.0315L13.0572 13.0579L13.0552 13.0588L11.4752 18.9885C11.2606 19.7941 10.5277 20.3567 9.69392 20.3567C8.86034 20.3565 8.12822 19.7938 7.91364 18.9885L6.32478 13.0334V13.0325C6.24678 12.7381 6.20759 12.4359 6.20759 12.134V12.0305C6.20765 10.8817 6.76784 9.86418 7.62653 9.22876L7.25349 4.36743C7.23782 4.15947 7.26495 3.95012 7.33356 3.75317L7.39216 3.60864C7.45819 3.46773 7.54594 3.33769 7.65192 3.2229L7.76423 3.11353C7.88143 3.01082 8.0144 2.92711 8.15778 2.8645L8.30329 2.80884C8.45186 2.76142 8.60766 2.73768 8.76423 2.73755L8.91853 2.74536ZM22.859 6.12427V7.97974C23.2489 7.72742 23.7106 7.57544 24.2105 7.57544H25.7623V8.15942C25.7623 9.5486 24.6319 10.6789 23.2427 10.679H22.859C22.8587 11.3689 22.4073 11.9722 21.7652 12.1604L21.6343 12.1926C20.1009 12.4955 18.9879 13.8522 18.9879 15.4182L18.9927 15.5911C19.0143 15.9945 19.1094 16.3913 19.275 16.761L19.3502 16.9172C19.5344 17.2767 19.7837 17.5995 20.0855 17.8694L20.2203 17.9836C20.9066 18.536 21.7655 18.7871 22.6588 18.6829L22.6597 18.6819L22.9332 18.6389C24.2829 18.3658 25.3574 17.2342 25.5338 15.8547L25.5582 15.5754C25.6189 14.1865 24.8042 12.8945 23.5074 12.3694L23.4146 12.3313L23.4527 12.2385L23.815 11.342L23.8531 11.2493L23.9459 11.2864C25.7628 12.0222 26.8787 13.8652 26.7125 15.8137L26.6929 16.0032C26.4446 17.9402 24.897 19.5162 22.9781 19.8186L22.7906 19.843C22.7063 19.8524 22.622 19.8598 22.5377 19.8645L22.2847 19.8713C21.2583 19.8717 20.26 19.521 19.4644 18.8743L19.3082 18.7405C18.3631 17.8957 17.82 16.6852 17.8199 15.4182C17.8199 13.2956 19.3295 11.457 21.4088 11.0471L21.4664 11.0305C21.5968 10.9779 21.6909 10.8416 21.691 10.679V6.12427H22.859ZM9.69392 9.71118C8.61713 9.71135 7.71157 10.4501 7.45173 11.4465H9.7945V12.6145H7.43024C7.43774 12.6541 7.44356 12.6935 7.45368 12.7317L7.62653 13.3821H8.82673V14.55H7.93806L8.14314 15.3176H9.7945V16.4856H8.45368L9.0406 18.6868L9.07966 18.7932C9.18815 19.0307 9.42632 19.1886 9.69392 19.1887C9.99987 19.1887 10.268 18.9824 10.3472 18.6868L11.9361 12.7317L11.9693 12.5842C11.9985 12.4357 12.0133 12.2847 12.0133 12.134V12.0305C12.0132 10.7519 10.9726 9.71118 9.69392 9.71118ZM24.2105 8.74341C23.6747 8.74341 23.2114 9.05748 22.9927 9.51099H23.2427C23.7788 9.51096 24.242 9.19718 24.4605 8.74341H24.2105ZM8.69294 3.91235L8.62458 3.93384C8.58091 3.95292 8.54158 3.98077 8.50935 4.01587H8.50837C8.47583 4.05075 8.45179 4.0929 8.4361 4.13794C8.42836 4.16023 8.42251 4.18302 8.4195 4.2063L8.41755 4.27759V4.27856L8.75642 8.67603C8.8729 8.64418 8.99119 8.61775 9.11091 8.5979V4.25122C9.11078 4.0605 8.95493 3.90473 8.76423 3.90454H8.76325L8.69294 3.91235ZM10.2779 8.16235L10.7974 5.82349L10.8072 5.73853L10.7974 5.65356C10.7909 5.62554 10.7807 5.5982 10.7681 5.57251L10.7222 5.50024C10.6865 5.45539 10.6411 5.41861 10.5894 5.3938C10.5635 5.38135 10.5363 5.37175 10.5084 5.36548L10.4234 5.35669H10.2779V8.16235Z" fill="#185DDE" stroke="#185DDE" stroke-width="0.2"/>
<path d="M22.2749 12.8982C23.6641 12.8982 24.7944 14.0286 24.7945 15.4177V15.5173H23.6265V15.4177C23.6265 14.6728 23.0199 14.0662 22.2749 14.0662H22.1753V12.8982H22.2749ZM27.2134 4.18921V5.3562H23.1431V4.18921H27.2134ZM27.2134 2.25366V3.42065H23.1431V2.25366H27.2134Z" fill="#185DDE" stroke="#185DDE" stroke-width="0.2"/>
</g>
<defs>
<clipPath id="clip0_59388_31">
<rect width="30" height="30" fill="white" transform="translate(0.984619 0.417725)"/>
</clipPath>
</defs>
</svg>
