<svg width="31" height="31" viewBox="0 0 31 31" fill="none" xmlns="http://www.w3.org/2000/svg">
<g clip-path="url(#clip0_59388_67)">
<mask id="mask0_59388_67" style="mask-type:luminance" maskUnits="userSpaceOnUse" x="0" y="0" width="31" height="31">
<path d="M30.4847 30.0439V1.04395H1.48467V30.0439H30.4847Z" fill="white" stroke="white"/>
</mask>
<g mask="url(#mask0_59388_67)">
<path d="M13.1764 4.98832C13.1764 5.55552 12.7165 6.01538 12.1493 6.01538C11.5821 6.01538 11.1223 5.55552 11.1223 4.98832C11.1223 4.42113 11.5821 3.96127 12.1493 3.96127C12.7165 3.96127 13.1764 4.42113 13.1764 4.98832Z" stroke="#185DDE" stroke-miterlimit="10" stroke-linecap="round" stroke-linejoin="round"/>
<path d="M23.4627 19.0354C23.4627 19.6026 23.0029 20.0625 22.4356 20.0625C21.8684 20.0625 21.4086 19.6026 21.4086 19.0354C21.4086 18.4682 21.8684 18.0084 22.4356 18.0084C23.0029 18.0084 23.4627 18.4682 23.4627 19.0354Z" stroke="#185DDE" stroke-miterlimit="10" stroke-linecap="round" stroke-linejoin="round"/>
<path d="M7.75124 26.3497C9.9908 28.1876 12.8561 29.291 15.9794 29.291C16.2158 29.291 16.4511 29.2849 16.6847 29.2719L16.3475 28.4533C16.1313 27.9285 16.3073 27.3254 16.767 26.9975C16.9253 26.885 17.0544 26.7363 17.1434 26.5637C17.2325 26.3911 17.2788 26.1997 17.2787 26.0055C17.2516 25.7702 17.395 25.2338 16.9494 24.7585L16.3137 24.0807C15.9236 23.6646 15.8746 23.033 16.1961 22.5618L16.3667 22.3118C16.8232 21.6419 16.5102 20.7214 15.7407 20.4686L13.8953 19.8629C13.726 19.8074 13.5831 19.6916 13.4938 19.5375L12.2282 17.3605C11.953 16.8859 11.2706 16.8769 10.9823 17.3442L10.6795 17.8351C10.6145 17.9405 10.5237 18.0275 10.4156 18.0879C10.3075 18.1483 10.1857 18.18 10.0619 18.1802C9.58489 18.1802 9.23881 17.7297 9.3582 17.2704L10.0135 14.7617C10.0393 14.6629 10.0855 14.5706 10.1494 14.4908C10.2132 14.4111 10.2931 14.3457 10.384 14.299L11.7193 13.6116C12.0203 13.4573 12.1665 13.1206 12.0959 12.8083C12.0353 12.5356 11.895 12.2871 11.6926 12.0945C11.4903 11.9019 11.2352 11.7739 10.9599 11.7268C10.2781 11.5844 9.84146 11.615 9.29515 11.2832L7.35738 10.1071C6.8782 9.81615 6.52546 9.35616 6.36878 8.8179L6.09971 7.89404C4.16642 10.1606 3 13.0999 3 16.3117C3 19.7676 4.35094 22.9077 6.55324 25.2336" stroke="#185DDE" stroke-width="1.5" stroke-miterlimit="10" stroke-linecap="round" stroke-linejoin="round"/>
<path d="M12.1597 2.18268C10.5239 2.17673 9.25364 3.59546 9.35111 5.2285C9.4506 6.89513 10.5575 8.39574 11.3488 9.2662C11.7775 9.73778 12.5196 9.7392 12.9484 9.26767C13.7777 8.35576 14.9547 6.75098 14.9547 4.98807C14.9547 3.44214 13.7043 2.18829 12.1597 2.18268Z" stroke="#185DDE" stroke-width="1.5" stroke-miterlimit="10" stroke-linecap="round" stroke-linejoin="round"/>
<path d="M25.9186 7.96549L25.3911 8.90342C25.2894 9.08436 25.1447 9.23751 24.9699 9.34942C24.795 9.46133 24.5954 9.52855 24.3885 9.54518C24.1774 9.56208 23.9739 9.63164 23.7967 9.7475C23.6195 9.86336 23.4742 10.0218 23.374 10.2084L22.891 11.1086C22.7754 11.3239 22.6 11.5012 22.3859 11.619C22.1719 11.7369 21.9283 11.7903 21.6845 11.7729C21.3829 11.7527 21.3261 11.743 21.1823 11.743C20.8567 11.743 20.5346 11.8107 20.2365 11.9417C19.9384 12.0727 19.6708 12.2643 19.4506 12.5042C18.5688 13.467 18.9927 14.489 18.2667 15.4536L17.1655 16.923C16.9094 17.2652 16.9826 17.7511 17.3288 18.0022L18.2831 18.6941C18.3746 18.7603 18.4797 18.8055 18.5907 18.8264C18.7017 18.8474 18.816 18.8435 18.9254 18.8151C19.1748 18.7531 19.4238 18.689 19.6722 18.623C19.8941 17.2826 21.0333 16.2249 22.4461 16.23C23.9907 16.2356 25.241 17.4895 25.241 19.0354C25.241 19.3613 25.2006 19.6818 25.1298 19.9936C25.1394 20.0007 25.1491 20.0081 25.1592 20.016L27.6729 21.9492C28.4965 20.2446 28.9582 18.3316 28.9582 16.3116C28.9582 13.1336 27.8153 10.2219 25.9186 7.96549Z" stroke="#185DDE" stroke-width="1.5" stroke-miterlimit="10" stroke-linecap="round" stroke-linejoin="round"/>
<path d="M21.2103 4.43002C19.6101 3.72439 17.8406 3.33233 15.9794 3.33233C15.4705 3.33233 14.9686 3.36211 14.475 3.41906C14.7885 3.8823 14.9556 4.429 14.9548 4.98833C14.9548 6.75124 13.7777 8.35602 12.9484 9.26793C12.5196 9.73941 11.7776 9.73805 11.3488 9.26641C10.5575 8.39595 9.45055 6.8954 9.35112 5.22876C9.34959 5.20329 9.34937 5.17809 9.3485 5.15278C8.12302 5.88262 7.02553 6.80849 6.09972 7.89354V7.89409L6.36878 8.81795C6.52548 9.3562 6.87821 9.81618 7.35738 10.1071L9.29515 11.2832C9.84146 11.6151 10.2781 11.5845 10.9599 11.7269C11.2352 11.7739 11.4903 11.9019 11.6927 12.0945C11.895 12.2871 12.0354 12.5356 12.0959 12.8083C12.1665 13.1207 12.0203 13.4574 11.7193 13.6117L10.384 14.299C10.2931 14.3458 10.2132 14.4112 10.1494 14.4909C10.0856 14.5707 10.0393 14.663 10.0135 14.7618L9.35821 17.2705C9.23887 17.7297 9.58489 18.1802 10.0619 18.1802C10.3108 18.1802 10.5456 18.0519 10.6795 17.8352L10.9824 17.3442C11.2707 16.8769 11.953 16.8859 12.2282 17.3605L13.4938 19.5376C13.5831 19.6917 13.726 19.8075 13.8953 19.863L15.7407 20.4687C16.5102 20.7215 16.8232 21.6419 16.3667 22.3119L16.1961 22.5619C15.8746 23.0331 15.9236 23.6647 16.3138 24.0807L16.9494 24.7586C17.395 25.2339 17.2516 25.7703 17.2787 26.0056C17.2789 26.1998 17.2325 26.3912 17.1434 26.5638C17.0544 26.7363 16.9253 26.8851 16.767 26.9975C16.3073 27.3255 16.1313 27.9285 16.3475 28.4534L16.6847 29.272C21.5309 29.0124 25.6715 26.0945 27.6729 21.9493L25.1592 20.0161C25.1491 20.0082 25.1394 20.0009 25.1298 19.9937C24.8175 21.3681 23.9107 22.5718 23.2348 23.3151C22.806 23.7866 22.0639 23.7852 21.6352 23.3136C20.8439 22.4432 19.7369 20.9426 19.6374 19.2759C19.6246 19.0577 19.6363 18.8388 19.6722 18.6231C19.4238 18.6891 19.1748 18.7532 18.9254 18.8153C18.816 18.8436 18.7017 18.8475 18.5907 18.8266C18.4797 18.8056 18.3746 18.7604 18.2831 18.6942L17.3288 18.0023C16.9826 17.7512 16.9094 17.2654 17.1656 16.9231L18.2667 15.4537C18.9927 14.4891 18.5688 13.4672 19.4506 12.5043C19.6708 12.2644 19.9384 12.0729 20.2365 11.9418C20.5346 11.8108 20.8567 11.7432 21.1823 11.7432C21.3261 11.7432 21.3829 11.7528 21.6845 11.773C21.9283 11.7905 22.1719 11.737 22.3859 11.6191C22.6 11.5013 22.7754 11.324 22.891 11.1087L23.374 10.2085C23.4742 10.0219 23.6195 9.86346 23.7967 9.74761C23.974 9.63176 24.1774 9.56221 24.3885 9.54534C24.5954 9.5287 24.7951 9.46146 24.9699 9.34955C25.1447 9.23763 25.2894 9.08447 25.3911 8.90353L25.9186 7.9656C25.0109 6.88545 23.9339 5.9598 22.7296 5.22473" stroke="#185DDE" stroke-width="1.5" stroke-miterlimit="10" stroke-linecap="round" stroke-linejoin="round"/>
<path d="M22.4461 16.23C20.8102 16.2241 19.54 17.6428 19.6375 19.2758C19.737 20.9424 20.8439 22.443 21.6352 23.3136C22.0639 23.7851 22.806 23.7866 23.2348 23.315C24.0641 22.4031 25.2411 20.7983 25.2411 19.0354C25.2411 17.4895 23.9907 16.2357 22.4461 16.23Z" stroke="#185DDE" stroke-width="1.5" stroke-miterlimit="10" stroke-linecap="round" stroke-linejoin="round"/>
</g>
</g>
<defs>
<clipPath id="clip0_59388_67">
<rect width="30" height="30" fill="white" transform="translate(0.984673 0.543945)"/>
</clipPath>
</defs>
</svg>
