<svg width="25" height="27" viewBox="0 0 25 27" fill="none" xmlns="http://www.w3.org/2000/svg">
<path fill-rule="evenodd" clip-rule="evenodd" d="M22.993 7.90897L22.2149 6.55886C21.5567 5.41646 20.098 5.02236 18.9541 5.67785V5.67785C18.4095 5.99864 17.7597 6.08965 17.148 5.93081C16.5363 5.77198 16.0129 5.37635 15.6932 4.83117C15.4875 4.48464 15.377 4.08995 15.3728 3.68701V3.68701C15.3914 3.04098 15.1477 2.41496 14.6972 1.95154C14.2467 1.48813 13.6278 1.22678 12.9815 1.22705H11.414C10.7809 1.22704 10.1738 1.47935 9.72714 1.92814C9.2805 2.37693 9.03111 2.9852 9.03415 3.61836V3.61836C9.01539 4.92561 7.95024 5.97547 6.64285 5.97533C6.23991 5.97115 5.84521 5.86064 5.49868 5.65497V5.65497C4.35472 4.99947 2.89603 5.39357 2.23782 6.53598L1.40258 7.90897C0.745155 9.04995 1.13389 10.5077 2.27214 11.1698V11.1698C3.01202 11.597 3.46781 12.3864 3.46781 13.2408C3.46781 14.0951 3.01202 14.8846 2.27214 15.3117V15.3117C1.13534 15.9694 0.746176 17.4236 1.40258 18.5611V18.5611L2.19205 19.9227C2.50045 20.4792 3.0179 20.8898 3.62988 21.0638C4.24187 21.2377 4.89794 21.1606 5.45292 20.8495V20.8495C5.99849 20.5311 6.64863 20.4439 7.25882 20.6072C7.86901 20.7705 8.38869 21.1708 8.70235 21.719C8.90801 22.0656 9.01853 22.4603 9.02271 22.8632V22.8632C9.02271 24.1839 10.0933 25.2545 11.414 25.2545H12.9815C14.2977 25.2545 15.3665 24.1909 15.3728 22.8746V22.8746C15.3698 22.2395 15.6207 21.6295 16.0698 21.1804C16.519 20.7312 17.129 20.4803 17.7641 20.4833C18.1661 20.4941 18.5592 20.6042 18.9083 20.8037V20.8037C20.0493 21.4611 21.507 21.0724 22.1692 19.9341V19.9341L22.993 18.5611C23.3118 18.0138 23.3994 17.362 23.2361 16.7499C23.0729 16.1379 22.6725 15.6162 22.1234 15.3003V15.3003C21.5743 14.9844 21.1739 14.4627 21.0107 13.8506C20.8474 13.2386 20.935 12.5867 21.2538 12.0394C21.4612 11.6774 21.7614 11.3772 22.1234 11.1698V11.1698C23.2548 10.5081 23.6427 9.05882 22.993 7.92041V7.92041V7.90897Z" stroke="#185DDE" stroke-width="2" stroke-linecap="round" stroke-linejoin="round"/>
<circle cx="12.2035" cy="13.2408" r="3.2952" stroke="#185DDE" stroke-width="2" stroke-linecap="round" stroke-linejoin="round"/>
</svg>
