<svg width="31" height="31" viewBox="0 0 31 31" fill="none" xmlns="http://www.w3.org/2000/svg">
<g clip-path="url(#clip0_59388_23)">
<path d="M24.7347 18.2087C27.496 18.2087 29.7347 20.7087 29.7347 22.5837C29.7347 23.6192 28.8952 24.4587 27.8597 24.4587H27.2347M22.2347 14.4587C24.3058 14.4587 25.9847 12.7798 25.9847 10.7087C25.9847 8.63768 24.3058 6.95874 22.2347 6.95874M7.23467 18.2087C4.47325 18.2087 2.23467 20.7087 2.23467 22.5837C2.23467 23.6192 3.07414 24.4587 4.10967 24.4587H4.73467M9.73467 14.4587C7.66361 14.4587 5.98467 12.7798 5.98467 10.7087C5.98467 8.63768 7.66361 6.95874 9.73467 6.95874M21.6097 24.4587H10.3597C9.32414 24.4587 8.48467 23.6192 8.48467 22.5837C8.48467 19.4587 12.2347 18.2087 15.9847 18.2087C19.7347 18.2087 23.4847 19.4587 23.4847 22.5837C23.4847 23.6192 22.6452 24.4587 21.6097 24.4587ZM19.7347 10.7087C19.7347 12.7798 18.0558 14.4587 15.9847 14.4587C13.9135 14.4587 12.2347 12.7798 12.2347 10.7087C12.2347 8.63768 13.9135 6.95874 15.9847 6.95874C18.0558 6.95874 19.7347 8.63768 19.7347 10.7087Z" stroke="#185DDE" stroke-width="2" stroke-linecap="round" stroke-linejoin="round"/>
</g>
<defs>
<clipPath id="clip0_59388_23">
<rect width="30" height="30" fill="white" transform="translate(0.984673 0.70874)"/>
</clipPath>
</defs>
</svg>
